<?xml version="1.0" standalone="no"?><!DOCTYPE svg PUBLIC "-//W3C//DTD SVG 1.1//EN" "http://www.w3.org/Graphics/SVG/1.1/DTD/svg11.dtd"><svg t="1772937641069" class="icon" viewBox="0 0 1060 1024" version="1.1" xmlns="http://www.w3.org/2000/svg" p-id="18585" xmlns:xlink="http://www.w3.org/1999/xlink" width="207.03125" height="200"><path d="M727.881143 430.555429a69.485714 69.485714 0 0 0 34.742857-60.16V169.764571a69.485714 69.485714 0 0 0-34.742857-60.16L554.166857 9.325714a69.485714 69.485714 0 0 0-69.485714 0l-173.714286 100.278857a69.485714 69.485714 0 0 0-34.742857 60.16v200.594286a69.485714 69.485714 0 0 0 34.742857 60.196572l173.714286 100.278857a69.485714 69.485714 0 0 0 69.485714 0l173.714286-100.278857z m-173.714286-73.618286a34.742857 34.742857 0 1 1-69.485714 0V304.822857h-52.114286a34.742857 34.742857 0 1 1 0-69.485714h52.114286V183.222857a34.742857 34.742857 0 1 1 69.485714 0v52.114286h52.114286a34.742857 34.742857 0 0 1 0 69.485714h-52.114286V356.937143z m-102.509714 236.397714L277.942857 493.056a69.485714 69.485714 0 0 0-69.485714 0L34.742857 593.334857A69.485714 69.485714 0 0 0 0 653.531429v200.594285A69.485714 69.485714 0 0 0 34.742857 914.285714l173.714286 100.278857a69.485714 69.485714 0 0 0 69.485714 0L451.657143 914.285714a69.485714 69.485714 0 0 0 34.742857-60.16V653.531429c0-24.868571-13.238857-47.762286-34.742857-60.196572z m-121.6 195.254857h-173.714286a34.742857 34.742857 0 0 1 0-69.485714h173.714286a34.742857 34.742857 0 1 1 0 69.485714z m674.011428-195.254857l-173.750857-100.278857a69.485714 69.485714 0 0 0-69.485714 0l-173.714286 100.278857a69.485714 69.485714 0 0 0-34.742857 60.196572v200.594285a69.485714 69.485714 0 0 0 34.742857 60.16l173.714286 100.278857a69.485714 69.485714 0 0 0 69.485714 0L1004.032 914.285714a69.485714 69.485714 0 0 0 34.742857-60.16V653.531429a69.485714 69.485714 0 0 0-34.742857-60.196572z m-118.125714 256.036572h-173.714286a34.742857 34.742857 0 0 1 0-69.485715h173.714286a34.742857 34.742857 0 1 1 0 69.485715z m0-121.6h-173.714286a34.742857 34.742857 0 1 1 0-69.485715h173.714286a34.742857 34.742857 0 1 1 0 69.485715z" fill="#ffffff" p-id="18586"></path></svg>