<?xml version="1.0" standalone="no"?><!DOCTYPE svg PUBLIC "-//W3C//DTD SVG 1.1//EN" "http://www.w3.org/Graphics/SVG/1.1/DTD/svg11.dtd"><svg t="1772938169847" class="icon" viewBox="0 0 1024 1024" version="1.1" xmlns="http://www.w3.org/2000/svg" p-id="25860" xmlns:xlink="http://www.w3.org/1999/xlink" width="200" height="200"><path d="M828.529284 146.603037h-146.603037V24.433839c0-13.327549-11.106291-24.433839-24.433839-24.433839h-48.867679c-13.327549 0-24.433839 11.106291-24.43384 24.433839v122.169198H293.206074V24.433839c0-13.327549-11.106291-24.433839-24.43384-24.433839H219.904555c-13.327549 0-24.433839 11.106291-24.433839 24.433839v122.169198H48.867679C22.212581 146.603037 0 168.815618 0 195.470716v633.058568c0 26.655098 22.212581 48.867679 48.867679 48.867679h470.906724c-13.327549-48.867679-13.327549-97.735358 0-146.603037 39.982646-155.488069 199.913232-248.780911 355.401302-208.798264V195.470716c2.221258-26.655098-19.991323-48.867679-46.646421-48.867679z m-97.735358 144.381779v4.442516c-2.221258 11.106291-11.106291 19.991323-24.433839 19.991323H166.59436c-11.106291-2.221258-19.991323-11.106291-19.991323-24.433839v-28.876356c2.221258-11.106291 11.106291-17.770065 24.433839-17.770065h535.323211c13.327549 0 24.433839 11.106291 24.433839 24.433839v22.212582z" p-id="25861" fill="#ffffff"></path><path d="M988.45987 804.095445c0-19.991323 13.327549-35.54013 33.318872-42.203905-8.885033-48.867679-35.54013-88.850325-73.301519-122.169197-13.327549 13.327549-35.54013 15.548807-53.310195 6.663774s-26.655098-28.876356-19.991323-48.867679c-22.212581-6.663774-48.867679-13.327549-73.301518-13.327549-26.655098 0-48.867679 2.221258-73.301519 13.327549 6.663774 19.991323-2.221258 37.761388-19.991323 48.867679s-39.982646 6.663774-53.310195-6.663774c-35.54013 31.097614-62.195228 73.301518-73.301519 122.169197 19.991323 2.221258 33.318872 22.212581 33.318872 42.203905s-13.327549 35.54013-33.318872 42.203904c8.885033 48.867679 35.54013 88.850325 73.301519 122.169198 13.327549-13.327549 35.54013-15.548807 53.310195-6.663775 15.548807 8.885033 26.655098 28.876356 19.991323 48.867679 22.212581 6.663774 48.867679 13.327549 73.301519 13.327549 26.655098 0 48.867679-2.221258 73.301518-13.327549-6.663774-19.991323 2.221258-37.761388 19.991323-48.867679 15.548807-8.885033 39.982646-6.663774 53.310195 6.663775 35.54013-31.097614 62.195228-73.301518 73.301519-122.169198-19.991323-6.663774-33.318872-24.433839-33.318872-42.203904m-188.806942 88.850325c-53.310195 0-95.5141-42.203905-95.514099-93.292842 0-51.088937 42.203905-93.292842 95.514099-93.292841s95.5141 42.203905 95.5141 93.292841-42.203905 93.292842-95.5141 93.292842" p-id="25862" fill="#ffffff"></path></svg>