<?xml version="1.0" standalone="no"?><!DOCTYPE svg PUBLIC "-//W3C//DTD SVG 1.1//EN" "http://www.w3.org/Graphics/SVG/1.1/DTD/svg11.dtd"><svg t="1772936982015" class="icon" viewBox="0 0 1024 1024" version="1.1" xmlns="http://www.w3.org/2000/svg" p-id="6105" xmlns:xlink="http://www.w3.org/1999/xlink" width="200" height="200"><path d="M890.128734 0H135.023122a134.383202 134.383202 0 0 0-134.383202 134.383202v755.105612c0 74.230721 60.152481 134.383202 134.383202 134.383202h755.105612a134.383202 134.383202 0 0 0 134.383202-134.383202v-755.105612a134.383202 134.383202 0 0 0-134.383202-134.383202z m0 89.588801a44.794401 44.794401 0 0 1 44.794401 44.794401v755.105612a44.794401 44.794401 0 0 1-44.794401 44.794401H135.023122a44.794401 44.794401 0 0 1-44.794401-44.794401v-755.105612a44.794401 44.794401 0 0 1 44.794401-44.794401h755.105612z" p-id="6106" fill="#ffffff"></path><path d="M203.174603 596.981377a44.794401 44.794401 0 1 0 0 89.588802H454.983127a44.794401 44.794401 0 1 0 0-89.588802H203.174603zM203.174603 765.152356a44.794401 44.794401 0 1 0 0 89.588801h340.693413a44.794401 44.794401 0 1 0 0-89.588801H203.174603z" p-id="6107" fill="#ffffff"></path><path d="M641.967754 156.908386a44.794401 44.794401 0 0 0-52.089489 36.091489l-9.086864 49.849769h-43.002625a44.794401 44.794401 0 1 0 0 89.588801h26.620673l-7.871016 43.002625H529.853768a44.794401 44.794401 0 1 0 0 89.588801h10.430696l-3.647544 19.965505a44.794401 44.794401 0 1 0 88.116986 16.061992l6.591176-36.027497h44.154481l-4.671417 25.596801a44.794401 44.794401 0 0 0 88.116986 15.998l7.615048-41.594801h44.858393a44.794401 44.794401 0 1 0 0-89.588801h-28.540433l7.871016-43.002625h28.668417a44.794401 44.794401 0 1 0 0-89.588801h-12.350456l5.11936-28.156481a44.794401 44.794401 0 1 0-88.052994-16.061992l-8.126984 44.154481h-44.154481l6.207225-33.723785a44.794401 44.794401 0 0 0-36.027497-52.089489z m57.592801 175.530059h-44.090489l-7.871016 43.002625h44.154481l7.871016-43.002625z" p-id="6108" fill="#ffffff"></path></svg>