<?xml version="1.0" standalone="no"?><!DOCTYPE svg PUBLIC "-//W3C//DTD SVG 1.1//EN" "http://www.w3.org/Graphics/SVG/1.1/DTD/svg11.dtd"><svg t="1772937482268" class="icon" viewBox="0 0 1024 1024" version="1.1" xmlns="http://www.w3.org/2000/svg" p-id="12065" xmlns:xlink="http://www.w3.org/1999/xlink" width="200" height="200"><path d="M512 957.952c-244.736 0-449.024-51.2-499.712-119.296A51.2 51.2 0 0 0 0 870.4C0 954.88 229.376 1024 512 1024s512-68.096 512-153.6a51.2 51.2 0 0 0-12.288-32.768c-51.2 68.096-256 119.296-499.712 119.296z m0-582.144c282.624 0 512-84.48 512-187.904S794.624 0 512 0 0 83.968 0 187.904s229.376 187.904 512 187.904zM285.696 523.264v-65.536C148.48 437.248 46.08 399.872 12.288 353.792A54.784 54.784 0 0 0 0 387.072c0 59.904 116.736 111.616 285.696 136.192z m452.608-65.536v65.536C907.264 498.688 1024 446.976 1024 387.072a54.784 54.784 0 0 0-12.288-33.28c-33.792 46.08-136.192 83.456-273.408 102.4z m0 162.816v66.048C907.264 661.504 1024 609.792 1024 549.888a51.2 51.2 0 0 0-12.288-32.768c-33.792 45.568-136.192 83.456-273.408 102.4z m-452.608 66.048v-66.048C148.48 600.576 46.08 563.2 12.288 517.12A51.2 51.2 0 0 0 0 549.888c0 59.904 116.736 111.616 285.696 136.704z" fill="#ffffff" p-id="12066"></path><path d="M285.696 848.896v-66.048C148.48 762.88 46.08 724.992 12.288 679.424A51.2 51.2 0 0 0 0 712.192c0 59.904 116.736 111.616 285.696 136.704z m452.608-66.048v66.048C907.264 823.808 1024 772.096 1024 712.192a51.2 51.2 0 0 0-12.288-32.768c-33.792 45.568-136.192 83.456-273.408 102.4z m-268.8 55.296V768H386.56c-17.92 0-28.16-8.192-28.16-25.088s10.24-21.504 27.136-24.576h83.968v-38.4H386.56c-17.92 0-27.136-8.192-27.136-25.088a28.672 28.672 0 0 1 27.136-25.088h47.104l-72.192-102.4a26.112 26.112 0 0 1-8.704-25.088 42.496 42.496 0 0 1 42.496-41.472 51.2 51.2 0 0 1 33.792 18.432L512 598.528l83.456-119.808a43.008 43.008 0 0 1 33.792-17.92 44.544 44.544 0 0 1 42.496 43.008 33.792 33.792 0 0 1-9.216 25.088l-71.68 102.4h47.104a32.256 32.256 0 0 1 27.136 25.088 24.576 24.576 0 0 1-27.136 25.088h-82.944V716.8h82.944a31.744 31.744 0 0 1 27.136 24.576 24.576 24.576 0 0 1-27.136 25.088h-82.944v70.144a37.376 37.376 0 0 1-43.008 38.4c-28.16 0-42.496-12.8-42.496-38.4z" fill="#ffffff" p-id="12067"></path></svg>