<?xml version="1.0" standalone="no"?><!DOCTYPE svg PUBLIC "-//W3C//DTD SVG 1.1//EN" "http://www.w3.org/Graphics/SVG/1.1/DTD/svg11.dtd"><svg t="1772937576180" class="icon" viewBox="0 0 1024 1024" version="1.1" xmlns="http://www.w3.org/2000/svg" p-id="16697" xmlns:xlink="http://www.w3.org/1999/xlink" width="200" height="200"><path d="M856.24 296.02a34.117 34.117 0 0 0 19.44-31.71 31.709 31.709 0 0 0-19.44-31.71L556.49 75.72a102.276 102.276 0 0 0-90.37 0L166.03 231.91a34.119 34.119 0 0 0-19.1 31.71 34.087 34.087 0 0 0 19.1 34.1l300.09 156.19a95.186 95.186 0 0 0 45.01 10.57 97.63 97.63 0 0 0 45.36-10.57l299.75-157.89zM434.75 527.91L140.11 368.66c-20.37-10.22-45.17-1.99-55.38 18.38a41.177 41.177 0 0 0-4.29 21.18v312.03c-0.22 31.1 16.51 59.85 43.65 75.02l294.64 159.6c21.19 9.83 46.33 0.62 56.15-20.57 2.9-6.26 4.23-13.13 3.87-20.01V603.96c0.52-31.54-16.4-60.79-44-76.05z m-78.78 170.51c-5.78 12.47-20.59 17.89-33.06 12.11-0.35-0.16-0.7-0.33-1.04-0.51l-133-65.82a23.88 23.88 0 0 1-12.96-14.66c-4.9-13.05 1.71-27.6 14.76-32.49 2.8-1.05 5.77-1.6 8.77-1.61 3.78 0.22 7.48 1.15 10.91 2.73l134.02 65.48c6.01 2.81 10.59 8 12.62 14.32a24.893 24.893 0 0 1-1.02 20.12v0.33z m527.56-329.76L588.89 528.59c-27.6 15.43-44.5 44.77-43.99 76.39v309.3c-1.45 22.93 15.96 42.7 38.89 44.15 7.3 0.46 14.58-1 21.13-4.26L899.55 793.9c27.38-15.48 44.22-44.59 43.99-76.05V408.9c1.65-22.92-15.59-42.83-38.51-44.48-7.42-0.54-14.84 0.92-21.5 4.24zM842.6 652.04l-134.36 64.79a30.163 30.163 0 0 1-10.91 2.39c-11.57-0.16-21.55-8.17-24.21-19.44-2.74-11.29 2.81-22.96 13.3-27.96l134.02-65.48c3.48-1.78 7.34-2.72 11.25-2.73 9.54 0.06 18.19 5.65 22.17 14.32 6.2 12.54 1.19 27.73-11.26 34.11z" p-id="16698" fill="#ffffff"></path></svg>