<?xml version="1.0" standalone="no"?><!DOCTYPE svg PUBLIC "-//W3C//DTD SVG 1.1//EN" "http://www.w3.org/Graphics/SVG/1.1/DTD/svg11.dtd"><svg t="1772938210588" class="icon" viewBox="0 0 1723 1024" version="1.1" xmlns="http://www.w3.org/2000/svg" p-id="28727" xmlns:xlink="http://www.w3.org/1999/xlink" width="336.5234375" height="200"><path d="M1212.874183 566.094758c-13.664836-2.389479-27.329672-4.480274-40.919836-7.24311-2.538822-0.522699-5.451-2.688164-6.795082-4.85363-12.470096-21.430644-28.375069-31.212576-56.824809-32.556658C1106.393004 376.952522 1048.448126 260.390726 928.526125 178.177698c-83.258426-57.048823-177.045495-78.255453-277.030278-64.291932-216.397236 30.24185-353.941648 216.247893-348.191963 407.779608 3.65889 122.535495 53.315261 224.387058 148.073057 301.970469 94.832467 77.658083 204.748523 103.718344 327.134675 84.677179-0.522699 38.605028 6.496397 74.223206 34.871466 102.747618-180.33103 44.429384-407.406252-25.089535-533.82465-215.799866-136.648358-206.092605-108.123947-469.980746 62.499823-642.471296 163.455331-165.172769 409.72106-199.372194 610.06398-88.186727C1165.383279 182.956657 1235.574238 408.165098 1212.874183 566.094758z" p-id="28728" fill="#ffffff"></path><path d="M650.599793 477.758688v-15.008918c0-69.444247-0.149342-138.888495 0.074671-208.332742 0.074671-25.164206 15.680959-46.296165 38.231672-53.165919 22.326699-6.944425 47.266891 0.224014 59.811658 19.93722 6.272384 9.856603 10.902 22.774726 11.051343 34.348767 0.896055 91.546933 0.672041 183.168537 0.373356 274.715469-0.074671 32.930014-22.028014 56.003425-54.883357 56.376782-65.113316 0.746712-130.375974 0.746712-195.48929 0-32.183302-0.298685-54.584672-23.372096-54.883357-53.763288-0.298685-29.345795 21.131959-53.165918 52.717891-54.43533 42.114576-1.568096 84.378494-0.59737 126.567741-0.746712 5.002973 0.074671 10.005945 0.074671 16.427672 0.074671zM903.585933 593.573772v46.445507c-3.509548 0.522699-6.720411 1.045397-9.931274 1.493425-22.326699 3.061521-33.676726 15.75563-33.751398 38.679699-0.149342 45.624124-0.074671 91.173576-0.074671 136.7977 0 34.946137-0.074671 69.817604 0 104.838413 0.074671 29.345795 13.440822 42.711946 43.085302 42.786617 40.023781 0.149342 80.122234 0 120.146015 0 44.728069 0 89.456138 0.074671 134.184207 0 31.585932-0.074671 45.325439-13.590165 45.40011-45.026754 0.074671-75.417946 0-150.835892 0-226.253839 0-38.903713-6.869754-47.19222-44.877411-53.539275v-45.250767c26.732302-6.795082 65.038645 10.155288 79.524864 38.530356 7.616466 15.008918 12.843452 32.930014 13.142137 49.656371 1.344082 80.122234 0.896055 160.244468 0.448027 240.29203-0.298685 53.24059-35.618179 89.157453-89.00811 89.605481-87.290672 0.672041-174.730687 0.672041-262.02136 0-53.83796-0.448027-88.261398-35.991535-88.336069-89.605481-0.149342-80.943617-0.224014-161.887235 0-242.905523 0.149342-51.224466 34.871466-86.021261 86.394617-87.664029 1.642767 0.149342 3.285534 0.672041 5.675014 1.120069z" p-id="28729" fill="#ffffff"></path><path d="M926.510002 601.264909c0-6.869754-0.224014-13.664836 0.074671-20.459918 0.672041-14.710233 10.379302-24.716178 23.894795-24.865521 12.470096-0.074671 23.222754 9.70726 24.417493 23.222754 0.746712 9.333904-0.373356 18.74248 0.448028 28.151055 0.970726 10.827329 2.613493 21.579987 5.152315 32.10863 3.285534 12.843452-0.448027 26.209603-10.902 34.124754-11.872726 8.960548-24.492165 9.259233-36.663576 0.896055-11.200685-7.691137-16.278329-21.131959-12.470096-33.452713 1.568096-5.226986 4.928301-10.080617 5.600342-15.382274 0.970726-7.989822 0.224014-16.203658 0.224014-24.268151 0.149342-0.074671 0.224014-0.074671 0.224014-0.074671zM1002.749331 649.577197c1.642767-24.342822 2.688164-48.610973 5.301658-72.879124 1.418753-13.29148 12.918123-21.579987 24.865521-20.609261 12.470096 1.045397 21.20663 10.229959 21.878671 24.044138 0.522699 11.947397-0.298685 23.894795 0.448028 35.767521 0.448027 7.019096 1.941452 14.112863 4.480274 20.683931 4.405603 11.872726 2.314808 25.38822-6.571069 34.348768-8.288507 8.363178-23.372096 11.872726-34.199425 6.64574-11.49937-5.525671-18.593137-14.635562-16.203658-28.001713zM1142.160525 655.102868c0 7.317781-6.571069 17.025041-18.294452 22.252028s-23.59611 3.434877-33.154028-5.376329c-9.035219-8.363178-11.872726-18.966493-9.333904-31.361918 2.688164-13.067466 4.554945-26.284274 5.973698-39.575754 0.821384-7.616466-0.074671-15.382274 0.522699-22.924069 0.970726-11.947397 9.70726-20.609261 21.281302-21.804 11.051343-1.120069 22.550713 6.04837 24.566836 17.697082 2.016123 12.09674 1.120069 24.566836 2.314808 36.812919 1.269411 12.768781 3.434877 25.537562 6.123041 44.280041zM1134.768073 936.762762c-16.128987-0.149342-31.063233-15.008918-31.287247-30.988562-0.224014-16.128987 15.75563-32.257973 31.735274-32.10863 15.75563 0.149342 31.063233 15.606288 31.361918 31.287247 0.298685 16.353-15.307603 31.884617-31.809945 31.809945zM1134.992086 706.775362c16.726356 0 32.033959 15.382274 31.585932 31.809946-0.373356 15.904973-15.75563 30.83922-31.585932 30.913891-15.904973 0-31.137905-14.859576-31.51126-30.83922-0.448027-16.502343 14.710233-31.884617 31.51126-31.884617zM1134.842744 852.682953c-16.577014-0.074671-31.063233-14.187534-31.361918-30.465863-0.298685-16.726356 14.560891-31.511261 31.660603-31.43659 16.502343 0.074671 31.063233 14.187534 31.436589 30.540535 0.373356 16.577014-14.635562 31.361918-31.735274 31.361918zM957.722577 905.699529c-0.149342 16.577014-14.262206 30.83922-30.689877 30.988562-16.95037 0.149342-31.361918-14.486219-31.212575-31.735274 0.074671-16.427671 14.411548-30.988562 30.689877-31.212576 16.651685-0.224014 31.436589 14.859576 31.212575 31.959288zM1062.112962 905.17683c0.074671 16.801028-15.083589 31.809946-31.735274 31.511261-16.128987-0.224014-30.83922-15.083589-30.913891-31.212576-0.149342-16.427671 15.680959-32.183302 31.884617-31.735274 16.128987 0.298685 30.689877 15.232932 30.764548 31.436589zM1062.112962 821.769062c0 17.099713-14.560891 31.137905-32.033959 30.913891-16.577014-0.224014-30.764548-14.635562-30.689877-30.988562 0.074671-17.099713 14.710233-31.137905 32.183302-30.839219 16.726356 0.149342 30.540535 14.262206 30.540534 30.91389zM895.820125 821.097021c0.224014-17.025041 13.739507-30.316521 30.91389-30.391192 17.54774 0 31.212576 13.888849 30.988562 31.511261-0.224014 16.95037-13.888849 30.391192-30.91389 30.391192-17.622411 0-31.212576-13.814178-30.988562-31.511261z" p-id="28730" fill="#ffffff"></path></svg>