<?xml version="1.0" standalone="no"?><!DOCTYPE svg PUBLIC "-//W3C//DTD SVG 1.1//EN" "http://www.w3.org/Graphics/SVG/1.1/DTD/svg11.dtd"><svg t="1772938426956" class="icon" viewBox="0 0 1059 1024" version="1.1" xmlns="http://www.w3.org/2000/svg" p-id="40302" xmlns:xlink="http://www.w3.org/1999/xlink" width="206.8359375" height="200"><path d="M434.093791 101.281952m-101.281953 0a101.281952 101.281952 0 1 0 202.563905 0 101.281952 101.281952 0 1 0-202.563905 0Z" fill="#ffffff" p-id="40303"></path><path d="M434.093791 174.941554a172.310854 172.310854 0 0 1 172.310854 172.310854V460.372511H263.098286V347.252408a172.310854 172.310854 0 0 1 170.995505-172.310854z" fill="#ffffff" p-id="40304"></path><path d="M822.12205 101.281952m-101.281952 0a101.281952 101.281952 0 1 0 202.563905 0 101.281952 101.281952 0 1 0-202.563905 0Z" fill="#ffffff" p-id="40305"></path><path d="M822.12205 174.941554a172.310854 172.310854 0 0 1 172.310854 172.310854V460.372511H649.811196V347.252408a172.310854 172.310854 0 0 1 172.310854-172.310854z" fill="#ffffff" p-id="40306"></path><path d="M434.093791 632.683365m-101.281953 0a101.281952 101.281952 0 1 0 202.563905 0 101.281952 101.281952 0 1 0-202.563905 0Z" fill="#ffffff" p-id="40307"></path><path d="M434.093791 706.342967a172.310854 172.310854 0 0 1 172.310854 172.310854v112.462428H263.098286v-112.462428a172.310854 172.310854 0 0 1 170.995505-172.310854z" fill="#ffffff" p-id="40308"></path><path d="M822.12205 632.683365m-101.281952 0a101.281952 101.281952 0 1 0 202.563905 0 101.281952 101.281952 0 1 0-202.563905 0Z" fill="#ffffff" p-id="40309"></path><path d="M822.12205 706.342967a172.310854 172.310854 0 0 1 172.310854 172.310854v112.462428H649.811196v-112.462428a172.310854 172.310854 0 0 1 172.310854-172.310854z" fill="#ffffff" p-id="40310"></path><path d="M1026.65898 958.232498H282.828537a226.240206 226.240206 0 0 1 0-451.822736h743.830443a32.226076 32.226076 0 0 0 31.568401-32.88375 31.568401 31.568401 0 0 0-31.568401-32.883751H282.828537A287.403982 287.403982 0 0 0 0.02828 731.992293a288.061657 288.061657 0 0 0 282.800257 292.007707h743.830443a32.883751 32.883751 0 0 0 0-65.767502z" fill="#ffffff" p-id="40311"></path></svg>