<?xml version="1.0" standalone="no"?><!DOCTYPE svg PUBLIC "-//W3C//DTD SVG 1.1//EN" "http://www.w3.org/Graphics/SVG/1.1/DTD/svg11.dtd"><svg t="1772937145335" class="icon" viewBox="0 0 1024 1024" version="1.1" xmlns="http://www.w3.org/2000/svg" p-id="7995" xmlns:xlink="http://www.w3.org/1999/xlink" width="200" height="200"><path d="M480.098462 561.782154H193.299692c-17.486769 0-31.901538 15.123692-31.901538 33.516308v66.087384h31.901538c35.091692 0 63.803077 29.538462 63.803077 66.126769v132.292923c0 36.706462-28.711385 66.087385-63.803077 66.087385H65.811692c-35.131077 0.118154-63.803077-29.380923-63.803077-66.087385v-132.214153c0-36.706462 28.672-66.087385 63.803077-66.087385h31.901539v-66.087385c0-55.020308 42.968615-99.643077 95.586461-99.643077h286.916923V429.686154H384.590769c-52.578462 0-95.586462-44.583385-95.586461-99.603692V197.592615c0-54.980923 43.008-99.603692 95.586461-99.603692h255.015385c52.578462 0 95.586462 44.622769 95.586461 99.643077v132.253538c0 55.020308-43.008 99.643077-95.586461 99.643077h-95.586462v66.087385h286.877539c52.617846 0 95.586462 44.583385 95.586461 99.603692v66.087385h31.901539c35.131077 0 63.803077 29.499077 63.803077 66.087385v132.332307c0 36.667077-28.672 66.087385-63.803077 66.087385h-127.606154c-35.052308 0-63.803077-29.538462-63.803077-66.126769v-132.096c0-36.706462 28.750769-66.087385 63.803077-66.087385h31.901538v-66.087385c0-18.313846-14.296615-33.516308-31.901538-33.516307H543.901538v99.603692h31.901539c35.091692 0 63.803077 29.499077 63.803077 66.087385v132.332307c0 36.667077-28.711385 66.087385-63.803077 66.087385h-127.488c-35.131077 0-63.803077-29.538462-63.803077-66.126769v-132.292923c0-36.706462 28.672-66.087385 63.803077-66.087385h31.901538v-99.682462h-0.118153zM384.512 164.233846c-17.526154 0-31.901538 15.123692-31.901538 33.476923v132.332308c0 18.313846 14.296615 33.476923 31.901538 33.476923h254.976c17.526154 0 31.901538-15.084308 31.901538-33.476923V197.592615c0-18.274462-14.296615-33.476923-31.901538-33.476923H384.512v0.07877zM65.772308 727.591385v132.332307h127.488v-132.332307H65.811692z m382.503384 0v132.332307h127.488v-132.332307h-127.488z m382.503385 0v132.332307h127.488v-132.332307h-127.527385z" fill="#ffffff" p-id="7996"></path><path d="M332.8 153.6h358.4v230.4h-358.4V153.6zM409.6 716.8h204.8v153.6h-204.8v-153.6zM768 716.8h204.8v153.6h-204.8v-153.6zM51.2 716.8h204.8v153.6H51.2v-153.6z" fill="#ffffff" p-id="7997"></path></svg>