<?xml version="1.0" standalone="no"?><!DOCTYPE svg PUBLIC "-//W3C//DTD SVG 1.1//EN" "http://www.w3.org/Graphics/SVG/1.1/DTD/svg11.dtd"><svg t="1772937784760" class="icon" viewBox="0 0 1024 1024" version="1.1" xmlns="http://www.w3.org/2000/svg" p-id="23841" xmlns:xlink="http://www.w3.org/1999/xlink" width="200" height="200"><path d="M678.4 761.6c-25.6 0-57.6-6.4-76.8-19.2-70.4-32-134.4-76.8-185.6-128-57.6-51.2-102.4-115.2-128-185.6-32-64-32-115.2-6.4-147.2s83.2-25.6 147.2 0c70.4 32 134.4 76.8 185.6 128 57.6 51.2 102.4 115.2 128 185.6 25.6 64 25.6 115.2-6.4 140.8-12.8 19.2-38.4 25.6-57.6 25.6zM345.6 281.6c-19.2 0-32 6.4-51.2 19.2-19.2 19.2-19.2 64 0 121.6 32 70.4 70.4 128 128 179.2 51.2 51.2 115.2 96 179.2 128 57.6 19.2 102.4 19.2 121.6 0s19.2-64 0-121.6c-32-70.4-70.4-128-128-179.2-51.2-51.2-115.2-96-179.2-128-19.2-12.8-44.8-19.2-70.4-19.2z" p-id="23842" fill="#ffffff"></path><path d="M684.8 787.2c-6.4 0-6.4 0 0 0-38.4 0-64-6.4-96-19.2C512 736 448 691.2 390.4 627.2 332.8 576 288 512 256 435.2c-25.6-70.4-25.6-134.4 12.8-166.4 25.6-25.6 70.4-44.8 166.4-12.8C512 288 576 332.8 633.6 396.8c57.6 51.2 102.4 115.2 134.4 192 32 70.4 25.6 134.4-12.8 166.4-19.2 19.2-44.8 32-70.4 32zM339.2 307.2c-6.4 0-19.2 0-25.6 6.4-12.8 12.8-12.8 44.8 6.4 96 25.6 64 70.4 121.6 121.6 172.8 51.2 51.2 108.8 89.6 172.8 121.6 51.2 19.2 83.2 12.8 96 6.4 12.8-12.8 19.2-44.8-6.4-96-25.6-64-70.4-121.6-121.6-172.8-51.2-51.2-108.8-96-172.8-121.6-19.2-12.8-38.4-12.8-70.4-12.8 6.4 0 6.4 0 0 0z" p-id="23843" fill="#ffffff"></path><path d="M345.6 761.6c-25.6 0-44.8-6.4-64-25.6-25.6-25.6-25.6-76.8 0-140.8 32-70.4 76.8-134.4 128-185.6 51.2-57.6 115.2-102.4 185.6-128 64-25.6 115.2-25.6 140.8 6.4s32 76.8 6.4 140.8c-32 70.4-76.8 134.4-128 185.6-51.2 57.6-115.2 102.4-185.6 128-25.6 12.8-57.6 19.2-83.2 19.2z m332.8-480c-25.6 0-51.2 6.4-70.4 19.2-70.4 32-128 70.4-179.2 128-51.2 51.2-96 115.2-128 179.2-19.2 57.6-19.2 102.4 0 121.6s64 19.2 121.6 0c70.4-32 128-70.4 179.2-128 51.2-51.2 96-115.2 128-179.2 19.2-57.6 19.2-102.4 0-121.6-19.2-12.8-32-19.2-51.2-19.2z" p-id="23844" fill="#ffffff"></path><path d="M339.2 787.2c-25.6 0-51.2-12.8-76.8-32-32-38.4-32-96-6.4-166.4 32-76.8 76.8-140.8 140.8-192C448 339.2 512 288 588.8 256c70.4-32 134.4-25.6 166.4 12.8 25.6 25.6 44.8 76.8 6.4 166.4-25.6 76.8-70.4 140.8-134.4 192-51.2 57.6-115.2 108.8-192 140.8-25.6 12.8-57.6 19.2-89.6 19.2h-6.4z m339.2-480c-25.6 0-44.8 6.4-70.4 12.8-64 25.6-121.6 70.4-172.8 121.6-44.8 51.2-89.6 108.8-115.2 172.8-19.2 51.2-12.8 83.2-6.4 96 12.8 12.8 44.8 19.2 96-6.4 64-25.6 121.6-70.4 172.8-121.6 51.2-51.2 89.6-108.8 121.6-172.8 19.2-51.2 12.8-83.2 6.4-96-6.4-6.4-19.2-6.4-32-6.4z" p-id="23845" fill="#ffffff"></path><path d="M467.2 512c0 25.6 19.2 44.8 44.8 44.8s44.8-19.2 44.8-44.8-19.2-44.8-44.8-44.8-44.8 19.2-44.8 44.8z" p-id="23846" fill="#ffffff"></path><path d="M755.2 934.4l-19.2-12.8L979.2 512l-230.4-396.8H352v-25.6h396.8c6.4 0 6.4 0 6.4 6.4l236.8 409.6v12.8l-236.8 416z m-102.4-6.4h-384c-6.4 0-6.4 0-6.4-6.4L25.6 518.4v-12.8l243.2-416 19.2 12.8L44.8 512l230.4 396.8h377.6v19.2z" p-id="23847" fill="#ffffff"></path><path d="M761.6 966.4l-57.6-32L953.6 512l-217.6-377.6H332.8v-64h422.4c12.8 0 25.6 6.4 25.6 19.2l236.8 409.6c6.4 12.8 6.4 25.6 0 32l-256 435.2z m-83.2-12.8H275.2c-12.8 0-25.6-6.4-25.6-19.2L6.4 524.8c-6.4-6.4-6.4-19.2 0-32l256-435.2 57.6 32L70.4 512l217.6 377.6h384v64z" p-id="23848" fill="#ffffff"></path><path d="M211.2 89.6c0 32 25.6 51.2 51.2 51.2s51.2-25.6 51.2-51.2c0-32-25.6-51.2-51.2-51.2s-51.2 19.2-51.2 51.2z" p-id="23849" fill="#ffffff"></path><path d="M697.6 934.4c0 32 25.6 51.2 51.2 51.2 32 0 51.2-25.6 51.2-51.2s-25.6-51.2-51.2-51.2-51.2 25.6-51.2 51.2z" p-id="23850" fill="#ffffff"></path></svg>