<?xml version="1.0" standalone="no"?><!DOCTYPE svg PUBLIC "-//W3C//DTD SVG 1.1//EN" "http://www.w3.org/Graphics/SVG/1.1/DTD/svg11.dtd"><svg t="1772938385348" class="icon" viewBox="0 0 1024 1024" version="1.1" xmlns="http://www.w3.org/2000/svg" p-id="38147" xmlns:xlink="http://www.w3.org/1999/xlink" width="200" height="200"><path d="M832 85.333333h-640C132.266667 85.333333 85.333333 132.266667 85.333333 192v640C85.333333 891.733333 132.266667 938.666667 192 938.666667h640c59.733333 0 106.666667-46.933333 106.666667-106.666667v-640C938.666667 132.266667 891.733333 85.333333 832 85.333333zM264.533333 209.066667h456.533334c34.133333 0 59.733333 25.6 59.733333 59.733333s-25.6 59.733333-59.733333 59.733333H264.533333c-34.133333 0-59.733333-25.6-59.733333-59.733333s25.6-59.733333 59.733333-59.733333z m-59.733333 230.4c0-34.133333 25.6-59.733333 59.733333-59.733334h456.533334c34.133333 0 59.733333 25.6 59.733333 59.733334s-25.6 59.733333-59.733333 59.733333H264.533333c-34.133333 0-59.733333-25.6-59.733333-59.733333z m264.533333 221.866666H264.533333c-21.333333 0-38.4-17.066667-38.4-38.4s17.066667-38.4 38.4-38.4H469.333333c21.333333 0 38.4 17.066667 38.4 38.4s-17.066667 38.4-38.4 38.4z m345.6 12.8l-34.133333 55.466667 25.6 59.733333c4.266667 8.533333 0 17.066667-4.266667 25.6-4.266667 8.533333-17.066667 8.533333-25.6 8.533334l-59.733333-17.066667-51.2 42.666667c-4.266667 4.266667-8.533333 4.266667-17.066667 4.266666H640c-8.533333-4.266667-12.8-12.8-12.8-21.333333l-4.266667-64-55.466666-34.133333c-8.533333-4.266667-12.8-12.8-12.8-21.333334s4.266667-17.066667 12.8-21.333333l59.733333-25.6 12.8-64c0-8.533333 8.533333-17.066667 17.066667-17.066667s17.066667 0 21.333333 8.533334l38.4 51.2 64-8.533334c8.533333 0 17.066667 4.266667 21.333333 12.8 17.066667 8.533333 17.066667 17.066667 12.8 25.6z" p-id="38148" fill="#ffffff"></path></svg>