<?xml version="1.0" standalone="no"?><!DOCTYPE svg PUBLIC "-//W3C//DTD SVG 1.1//EN" "http://www.w3.org/Graphics/SVG/1.1/DTD/svg11.dtd"><svg t="1772938234607" class="icon" viewBox="0 0 1024 1024" version="1.1" xmlns="http://www.w3.org/2000/svg" p-id="29820" xmlns:xlink="http://www.w3.org/1999/xlink" width="200" height="200"><path d="M896 474.453333c-146.773333-64.853333-319.146667-10.24-402.773333 128-83.626667 138.24-51.2 315.733333 75.093333 414.72-17.066667 8.533333-39.253333 5.12-52.906667-6.826666l-73.386666-58.026667-66.56 58.026667c-10.24 8.533333-20.48 11.946667-34.133334 11.946666-11.946667 0-23.893333-5.12-32.426666-11.946666l-64.853334-58.026667-66.56 58.026667c-18.773333 17.066667-47.786667 17.066667-66.56 0l-76.8-68.266667c-1.706667-1.706667-5.12-3.413333-6.826666-6.826667-17.066667-11.946667-27.306667-32.426667-27.306667-54.613333V51.2c0-29.013333 23.893333-51.2 51.2-51.2h793.6c27.306667 0 51.2 22.186667 51.2 51.2v423.253333zM102.4 428.373333c0 13.653333 11.946667 25.6 25.6 25.6H358.4c6.826667 0 13.653333-3.413333 17.066667-6.826666 5.12-5.12 6.826667-11.946667 6.826666-17.066667 0-13.653333-11.946667-25.6-25.6-25.6H128c-6.826667 0-13.653333 3.413333-17.066667 6.826667-5.12 5.12-8.533333 10.24-8.533333 17.066666zM102.4 631.466667c0 13.653333 10.24 25.6 23.893333 25.6H307.2c13.653333 0 25.6-11.946667 23.893333-25.6 0-13.653333-10.24-25.6-23.893333-25.6H128c-13.653333 0-25.6 11.946667-25.6 25.6z m0-430.08c0 13.653333 11.946667 25.6 25.6 25.6H460.8c13.653333 0 25.6-11.946667 25.6-25.6s-11.946667-25.6-25.6-25.6H128c-6.826667 0-13.653333 3.413333-17.066667 6.826666-5.12 6.826667-8.533333 11.946667-8.533333 18.773334z m0 0" p-id="29821" fill="#ffffff"></path><path d="M768 1022.293333c-141.653333 0-256-114.346667-256-256s114.346667-256 256-256 256 114.346667 256 256-116.053333 256-256 256z m119.466667-259.413333c8.533333 0 15.36-3.413333 18.773333-10.24 3.413333-6.826667 3.413333-15.36 0-22.186667s-11.946667-10.24-18.773333-10.24h-54.613334L887.466667 665.6c3.413333-3.413333 6.826667-8.533333 6.826666-15.36 0-5.12-1.706667-10.24-6.826666-15.36-3.413333-3.413333-10.24-6.826667-15.36-6.826667-5.12 0-10.24 1.706667-15.36 6.826667l-78.506667 78.506667-78.506667-78.506667c-6.826667-6.826667-15.36-8.533333-23.893333-5.12-8.533333 3.413333-13.653333 10.24-13.653333 20.48 0 5.12 1.706667 11.946667 6.826666 15.36l54.613334 54.613333h-51.2c-11.946667 0-20.48 10.24-20.48 20.48 0 11.946667 8.533333 20.48 20.48 20.48h85.333333v42.666667h-85.333333c-8.533333 0-15.36 3.413333-18.773334 10.24-3.413333 6.826667-3.413333 15.36 0 22.186667s11.946667 10.24 18.773334 10.24h85.333333v49.493333c0 6.826667 3.413333 15.36 10.24 18.773333 6.826667 3.413333 15.36 3.413333 20.48 0 6.826667-3.413333 10.24-10.24 10.24-18.773333v-49.493333h85.333333c11.946667 0 20.48-10.24 20.48-20.48s-8.533333-20.48-20.48-20.48h-85.333333v-42.666667H887.466667z m0 0" p-id="29822" fill="#ffffff"></path></svg>