<?xml version="1.0" standalone="no"?><!DOCTYPE svg PUBLIC "-//W3C//DTD SVG 1.1//EN" "http://www.w3.org/Graphics/SVG/1.1/DTD/svg11.dtd"><svg t="1772938469696" class="icon" viewBox="0 0 1024 1024" version="1.1" xmlns="http://www.w3.org/2000/svg" p-id="42433" xmlns:xlink="http://www.w3.org/1999/xlink" width="200" height="200"><path d="M732.24 879.056a146.816 146.816 0 1 0 0-293.648 146.816 146.816 0 0 0 0 293.648z m0 48.944c-108.128 0-195.776-87.648-195.776-195.76 0-108.128 87.648-195.776 195.776-195.776C840.352 536.48 928 624.112 928 732.24 928 840.352 840.352 928 732.24 928z m42.736-155.792a81.6 81.6 0 0 0 22.24-56.064c0-45.168-36.448-81.792-81.44-81.792-44.96 0-81.424 36.624-81.424 81.792s36.448 81.808 81.44 81.808c16.8 0 33.184-5.232 46.864-14.992l37.232 37.408a8.144 8.144 0 0 0 11.52 0 8.224 8.224 0 0 0 0-11.568l-36.432-36.592z m-124.336-56.064c0-36.128 29.168-65.44 65.152-65.44 35.968 0 65.136 29.312 65.136 65.44 0 36.144-29.152 65.44-65.12 65.44a65.296 65.296 0 0 1-65.168-65.44zM649.648 96l211.904 211.84v226a237.856 237.856 0 0 0-124.736-35.36 240.032 240.032 0 0 0-208.048 122.56 237.584 237.584 0 0 0 4.928 240.512H159.808a64.144 64.144 0 0 1-45.184-18.768A63.488 63.488 0 0 1 96 797.728V159.824a63.488 63.488 0 0 1 18.624-45.056A64.144 64.144 0 0 1 159.808 96h489.84zM252.736 388.688v0.32-150.72h150.8v-50.512H201.952v200.912h50.784z m251.168 150.72h0.176V288.32H303.008v251.088h200.896z" fill="#ffffff" p-id="42434"></path></svg>