<?xml version="1.0" standalone="no"?><!DOCTYPE svg PUBLIC "-//W3C//DTD SVG 1.1//EN" "http://www.w3.org/Graphics/SVG/1.1/DTD/svg11.dtd"><svg t="1772888167078" class="icon" viewBox="0 0 1024 1024" version="1.1" xmlns="http://www.w3.org/2000/svg" p-id="53555" xmlns:xlink="http://www.w3.org/1999/xlink" width="200" height="200"><path d="M512 0C229.376 0 0 229.376 0 512s229.376 512 512 512 512-229.376 512-512S794.624 0 512 0z m-40.96 266.24c0-22.528 18.432-40.96 40.96-40.96s40.96 18.432 40.96 40.96v327.68c0 22.528-18.432 40.96-40.96 40.96s-40.96-18.432-40.96-40.96V266.24z m40.96 532.48c-33.792 0-61.44-27.648-61.44-61.44s27.648-61.44 61.44-61.44 61.44 27.648 61.44 61.44-27.648 61.44-61.44 61.44z" p-id="53556" fill="#595959"></path></svg>