<?xml version="1.0" standalone="no"?><!DOCTYPE svg PUBLIC "-//W3C//DTD SVG 1.1//EN" "http://www.w3.org/Graphics/SVG/1.1/DTD/svg11.dtd"><svg t="1772886882913" class="icon" viewBox="0 0 1024 1024" version="1.1" xmlns="http://www.w3.org/2000/svg" p-id="27535" xmlns:xlink="http://www.w3.org/1999/xlink" width="200" height="200"><path d="M246.46 260.73c0 140.668 115.974 254.736 258.958 254.736 143.029 0 258.964-114.068 258.964-254.736 0-140.679-115.935-254.741-258.964-254.741-142.984 0-258.958 114.062-258.958 254.741z m499.306 300.834h66.249c4.149 0 6.23 2.08 6.23 6.202v130.075c0 4.172-2.08 6.196-6.23 6.196h-66.249c-4.161 0-6.168-2.024-6.168-6.196V567.822c0-4.177 2.007-6.258 6.168-6.258z m145.621 263.31a33.419 33.419 0 0 0-26.982 11.779 45.512 45.512 0 0 0-9.896 30.429c0 12.285 3.272 22.315 9.671 30.153 6.41 7.776 15.186 11.717 26.425 11.667 11.414 0 20.246-3.722 26.656-11.217 6.286-7.433 9.558-17.474 9.558-30.097 0-13.185-3.16-23.552-9.345-31.221a31.807 31.807 0 0 0-26.133-11.492h0.046z m106.551-138.306h-145.11a3.937 3.937 0 0 0-3.936 3.941v19.499c0 8.737-5.24 24.919-22.383 25.7h-93.838c-16.136 0.405-23.609-16.963-23.609-25.7v-18.144a3.938 3.938 0 0 0-3.936-3.891H577.498c-8.833-1.406-16.08 5.695-16.08 14.427v295.55c0.157 10.975 9.12 19.785 20.072 19.718h416.448c10.953 0.067 19.915-8.743 20.072-19.718V706.348c-0.129-11.003-9.092-19.842-20.072-19.78zM775.284 944.351h-37.102a3.936 3.936 0 0 1-3.03-1.462l-64.096-80.873a3.91 3.91 0 0 0-4.447-1.361 3.913 3.913 0 0 0-2.631 3.835c0.326 20.966 0.551 62.954 0.551 75.976a3.938 3.938 0 0 1-3.936 3.941h-35.359a3.948 3.948 0 0 1-3.936-3.941v-142.36a3.938 3.938 0 0 1 3.936-3.891h37.839a3.936 3.936 0 0 1 3.154 1.518c7.191 9.299 45.373 58.327 61.493 79.237a3.944 3.944 0 0 0 4.487 1.456 3.958 3.958 0 0 0 2.665-3.879l-0.382-74.441c0-1.051 0.394-2.058 1.147-2.794a3.889 3.889 0 0 1 2.772-1.153h36.833c2.193 0 3.936 1.687 3.936 3.947v142.298a3.946 3.946 0 0 1-3.936 3.947h0.042z m172.496-19.218c-14.719 14.59-34.016 21.866-57.793 21.866-23.328 0-42.213-7.051-56.781-21.197-14.624-14.084-21.826-32.29-21.826-54.555 0-23.49 7.433-42.657 22.282-57.428 14.888-14.759 34.51-22.147 58.912-22.147 23.277 0 41.932 7.157 56.117 21.421 14.169 14.258 21.247 32.633 21.247 54.999 0 23.447-7.421 42.502-22.158 57.041zM709.007 644.417v-65.158a12.347 12.347 0 0 0-6.471-10.818c-63.078-34.713-115.822-54.268-197.061-54.268-271.783 0-492.851 205.309-499.48 477.8-0.18 6.932 5.606 26.088 21.079 26.037h486.504a12.436 12.436 0 0 0 8.833-3.587 12.383 12.383 0 0 0 3.694-8.81v-329.3c0-10.087 14.849-22.377 25.025-20.741l141.573 1.243h3.818c3.3 0.011 6.471-1.282 8.805-3.61a12.455 12.455 0 0 0 3.681-8.788z m0 0" p-id="27536" fill="#595959"></path></svg>