<?xml version="1.0" standalone="no"?><!DOCTYPE svg PUBLIC "-//W3C//DTD SVG 1.1//EN" "http://www.w3.org/Graphics/SVG/1.1/DTD/svg11.dtd"><svg t="1772888688078" class="icon" viewBox="0 0 1024 1024" version="1.1" xmlns="http://www.w3.org/2000/svg" p-id="55493" xmlns:xlink="http://www.w3.org/1999/xlink" width="200" height="200"><path d="M7.92576 609.88416c293.2224-1.51552 456.13056-1.30048 488.64256 0.7168v160.37888c0.02048 11.61216 7.0144 22.07744 17.73568 26.5216a28.777472 28.777472 0 0 0 31.31392-6.16448c183.32672-183.33696 275.0976-275.10784 275.31264-275.456 10.47552-11.85792 9.41056-29.94176-2.37568-40.48896l-274.16576-243.8144a28.783616 28.783616 0 0 0-30.88384-4.67968 28.76928 28.76928 0 0 0-16.93696 26.25536v165.84704c-12.9536 1.30048-175.77984 1.44384-488.64256 0.3584V152.46336C7.92576 73.02144 72.32512 8.62208 151.76704 8.62208h719.22688c38.15424 0 74.74176 15.1552 101.71392 42.12736a143.80032 143.80032 0 0 1 42.12736 101.71392v719.22688c0 79.44192-64.39936 143.84128-143.84128 143.84128H151.76704c-79.44192 0-143.84128-64.39936-143.84128-143.84128V609.88416z m0 0" p-id="55494" fill="#595959"></path></svg>