<?xml version="1.0" standalone="no"?><!DOCTYPE svg PUBLIC "-//W3C//DTD SVG 1.1//EN" "http://www.w3.org/Graphics/SVG/1.1/DTD/svg11.dtd"><svg t="1772889029827" class="icon" viewBox="0 0 1025 1024" version="1.1" xmlns="http://www.w3.org/2000/svg" p-id="59127" xmlns:xlink="http://www.w3.org/1999/xlink" width="200.1953125" height="200"><path d="M516.608 821.248c3.072-21.504 16.384-38.912 35.84-46.08 3.584-1.536 7.68-4.608 11.264-8.704 2.048-2.048 2.048-3.072 2.048-4.096 0-1.024 0-1.536-1.024-2.56-3.584-4.096-7.68-6.656-11.776-8.704-9.216-3.584-20.992-10.752-29.184-26.624-5.12-9.728-7.68-19.968-7.68-30.72 0-7.68 1.024-15.872 3.072-24.576 2.048-7.68 4.608-14.848 7.68-22.016s7.168-14.336 11.264-20.48c6.144-9.216 13.312-15.872 21.504-20.992 8.704-5.12 18.432-8.192 27.648-8.192 2.048 0 4.608 0 6.656 0.512 5.12 0.512 10.24 2.048 15.872 3.584l1.024 0.512 1.024 0.512c2.56 1.024 4.608 1.536 7.168 1.536h3.072c1.024 0 2.56-0.512 4.608-2.048l1.536-7.68c0.512-3.584 0-6.144 0-7.68 0-2.048-0.512-4.096-0.512-5.632-0.512-2.56-1.536-5.632-2.048-8.192-2.048-10.752-0.512-22.016 3.584-31.744 5.12-11.776 13.824-21.504 25.088-29.184 7.68-5.12 15.872-9.728 25.088-12.8 8.192-3.072 16.384-5.632 24.064-7.168 8.704-1.536 15.36-2.56 22.016-2.56 16.384 0 30.72 6.656 40.96 17.92 5.632 6.144 9.728 13.312 12.8 20.992 1.024 2.56 3.072 4.608 5.632 7.168 0.512 0.512 1.024 1.024 3.584 1.024 2.56 0 4.096-0.512 5.632-1.024V420.864c0-152.576-101.888-281.6-239.616-323.584-5.12-49.152-46.592-88.576-98.304-88.576-51.712 0.512-93.696 38.4-98.816 89.088C218.624 139.264 117.76 269.824 117.76 420.864v305.152C47.616 761.856 1.024 786.432 1.024 869.888h522.24c-2.048-6.144-4.096-12.288-5.12-18.432-2.56-11.264-3.072-20.992-1.536-30.208zM264.192 931.328c48.128 52.736 115.712 86.016 192 86.016 61.44 0 118.272-21.504 162.304-57.856 0-8.704 2.56-17.92 7.68-28.672H264.192z" fill="#595959" p-id="59128"></path><path d="M633.344 934.4c0.512-1.024 0.512-2.048 1.024-3.072h-9.216c-4.608 10.24-7.168 19.456-7.68 28.672 3.072-2.56 6.656-5.632 9.728-8.192 1.536-5.632 3.584-11.264 6.144-17.408z" fill="#595959" p-id="59129"></path><path d="M1015.296 815.616c-1.536-1.536-3.584-2.56-6.144-4.096-10.24-3.584-17.92-9.728-24.064-18.432-6.144-8.704-9.216-18.432-9.216-29.696 0-11.776 3.584-22.016 11.264-31.232 7.168-9.216 16.384-15.872 26.624-19.456 2.56-1.024 5.12-3.072 7.68-6.144s3.584-7.68 2.56-13.312c-1.536-9.728-4.096-19.456-7.68-28.672-4.096-9.728-8.192-16.384-13.312-21.504-2.56-2.56-6.144-4.096-9.728-4.608-4.096-0.512-7.168 0.512-9.728 2.048-10.24 4.608-20.992 6.656-32.768 5.632-11.776-1.024-21.504-5.12-29.696-13.312-8.192-8.192-12.8-17.408-14.336-28.16-1.536-10.752-0.512-20.992 4.096-30.72 0.512-1.536 1.536-3.584 2.048-6.656 0.512-3.072 0-6.144-1.536-8.704-2.56-4.096-6.144-8.192-10.752-11.776-4.608-3.584-9.216-6.656-14.848-9.216-5.12-2.56-10.752-4.096-16.384-5.632-5.632-1.536-10.752-2.048-15.36-2.048-3.072 0-6.144 1.536-8.704 4.096-3.072 3.072-5.12 5.632-6.144 8.192-3.584 10.24-10.24 18.432-18.944 24.576-9.216 6.656-19.456 9.728-31.232 9.728-11.264 0-20.992-3.584-29.696-10.24-8.192-6.656-14.336-14.848-17.92-24.064-1.024-3.072-2.56-6.144-5.12-8.704-2.56-3.072-6.144-4.096-10.24-4.096-3.584 0-7.68 0.512-13.312 1.536-5.632 1.024-11.776 3.072-17.408 5.12-6.144 2.56-11.776 5.12-16.896 8.704s-8.704 7.68-10.752 12.288c-1.024 2.048-1.024 4.096-0.512 7.168 0.512 2.56 1.024 5.12 1.536 7.168 0.512 2.048 0.512 5.12 1.024 10.24 0.512 4.608 0.512 9.728 0 15.36s-1.536 11.264-3.584 17.408c-2.048 5.632-4.608 10.752-8.704 14.848-8.192 8.192-17.92 12.8-28.672 14.336-10.752 1.536-21.504 0-31.232-3.584-3.072-1.024-5.632-1.536-8.192-2.048-2.56-0.512-5.12 0.512-7.68 2.048-3.584 2.048-6.656 5.12-9.216 9.216-3.072 4.096-5.12 8.704-7.68 13.824-2.048 5.12-4.096 10.24-5.12 15.36-1.536 5.12-2.048 10.24-2.048 14.336 0 4.096 1.024 8.192 3.072 11.776 2.048 4.096 4.608 6.144 7.68 7.168 10.24 4.096 18.944 10.24 27.136 18.944 8.192 8.704 11.776 18.944 11.776 30.72 0 11.264-4.096 21.504-11.776 30.72-8.192 9.216-16.896 15.872-27.136 19.968-5.632 2.048-9.216 6.656-10.24 13.824-0.512 4.096-0.512 9.216 1.024 15.36 1.536 6.144 3.072 12.288 5.632 17.92 2.56 5.632 5.12 11.264 8.704 15.872 3.072 4.608 6.656 8.192 10.24 9.216 4.608 2.048 9.216 2.56 13.824 1.024 7.168-2.56 14.336-3.584 21.504-4.096 6.144-0.512 12.288 0 18.944 1.536 6.656 1.536 12.288 4.608 16.896 9.728 7.68 8.192 11.776 17.408 12.8 27.136 1.024 9.728-0.512 18.432-4.096 26.112-2.56 5.632-4.096 10.24-3.584 13.312 0 3.072 1.024 6.144 2.56 8.192 2.56 3.584 5.632 6.656 10.752 10.24 4.608 3.584 9.728 6.144 15.872 8.704 5.632 2.56 11.776 4.608 17.408 6.144 5.632 1.536 11.264 2.56 15.872 2.56 4.096 0 7.68-1.024 11.264-2.56 3.584-2.048 5.632-4.608 7.68-8.704 3.584-10.24 10.24-18.944 19.456-26.112 9.216-7.68 19.456-11.264 30.72-11.264 11.776 0 22.016 3.584 30.72 11.264 8.704 7.68 15.36 16.384 18.944 26.624h0.512c1.024 2.56 3.072 5.12 5.632 7.68 2.56 2.56 5.632 3.584 8.704 3.584 4.096 0 9.216-0.512 14.848-2.048 5.632-1.536 11.264-3.072 16.384-5.632 5.12-2.56 9.728-5.12 14.336-7.68 4.096-3.072 7.68-5.632 9.728-8.192 4.096-6.656 4.608-13.312 1.536-19.968-4.096-9.728-5.632-19.968-4.608-30.72 1.536-10.752 6.144-19.968 13.824-28.672 3.584-4.096 8.192-6.656 13.312-8.704 5.12-1.536 10.24-2.56 15.36-3.072 5.12-0.512 10.24-0.512 15.36 0.512s9.216 1.536 12.288 2.56c3.584 1.536 7.168 2.048 10.24 2.048 3.072 0 6.656-1.024 10.752-3.072 4.096-2.048 7.68-5.12 11.264-10.24 3.584-4.608 6.144-9.728 8.704-15.872 2.56-5.632 4.096-11.776 5.12-17.408 1.024-5.632 1.024-10.752 0.512-14.336-3.584-2.048-6.144-6.144-9.728-9.216z m-124.928-10.24c-5.632 13.312-13.312 24.576-23.552 34.816-9.728 10.24-21.504 17.92-34.816 23.552-13.312 5.632-27.648 8.704-42.496 8.704-14.848 0-29.184-3.072-42.496-8.704-13.312-5.632-24.576-13.312-34.816-23.552-9.728-10.24-17.408-21.504-23.552-34.816-5.632-13.312-8.704-27.136-8.704-42.496 0-14.848 3.072-29.184 8.704-42.496 5.632-13.312 13.312-24.576 23.552-34.816 9.728-9.728 21.504-17.408 34.816-23.552 13.312-5.632 27.136-8.704 42.496-8.704 14.848 0 29.184 3.072 42.496 8.704 13.312 5.632 25.088 13.312 34.816 23.552 9.728 9.728 17.408 21.504 23.552 34.816 5.632 13.312 8.704 27.136 8.704 42.496 0 15.36-3.072 29.184-8.704 42.496z" fill="#595959" p-id="59130"></path></svg>