<?xml version="1.0" standalone="no"?><!DOCTYPE svg PUBLIC "-//W3C//DTD SVG 1.1//EN" "http://www.w3.org/Graphics/SVG/1.1/DTD/svg11.dtd"><svg t="1772886723756" class="icon" viewBox="0 0 1024 1024" version="1.1" xmlns="http://www.w3.org/2000/svg" p-id="23830" xmlns:xlink="http://www.w3.org/1999/xlink" width="200" height="200"><path d="M933.376 145.408l-24.576-0.512c-1.024 0-98.816-2.048-199.68-41.984-103.424-40.96-170.496-88.064-171.008-88.576L523.264 3.584c-3.072-2.56-7.168-3.584-11.264-3.584-4.096 0-8.192 1.536-11.264 3.584l-14.848 10.24c-1.024 0.512-67.584 47.616-170.496 88.576-100.864 39.936-198.656 41.984-199.68 41.984l-25.088 0.512c-10.752 0.512-18.944 8.192-18.944 18.432v414.208c0 217.088 286.208 446.464 440.32 446.464s440.32-229.376 440.32-445.952V163.84c0-10.24-8.704-18.432-18.944-18.432z m-189.952 265.728l-260.608 260.608c-15.872 15.872-41.984 15.872-57.856 0l-144.896-144.896c-15.872-15.872-15.872-41.984 0-57.856 8.192-8.192 18.432-11.776 29.184-11.776 10.24 0 20.992 4.096 29.184 11.776l115.712 115.712L686.08 352.768c15.872-15.872 41.984-15.872 57.856 0 15.36 16.384 15.36 42.496-0.512 58.368z" p-id="23831" fill="#595959"></path></svg>