<?xml version="1.0" encoding="UTF-8"?>
<svg id="_图层_1" data-name="图层 1" xmlns="http://www.w3.org/2000/svg" viewBox="0 0 1279.54 647.71">
  <defs>
    <style>
      .cls-1 {
        fill: #004780;
      }

      .cls-1, .cls-2, .cls-3, .cls-4 {
        fill-rule: evenodd;
      }

      .cls-2 {
        fill: #004a86;
      }

      .cls-3 {
        fill: #ed6c00;
      }

      .cls-4 {
        fill: #00aae8;
      }
    </style>
  </defs>
  <path class="cls-3" d="M284.98,1.86c7.25,9.63,14.5,19.26,21.74,28.89,14.29,16.98,28.58,33.96,42.86,50.94,9.52,10.04,19.05,20.09,28.58,30.13,20.5,21.37,41.36,42.92,64.61,61.5,11.23,8.97,21.7,19.22,33.23,27.95,54.43,41.22,114.42,81.7,191.95,99.08,13.71,3.07,28.37,3.4,42.86,5.9,17.48,3.02,41.28,3.18,58.39,0,10.92-2.03,20.67-2.68,30.44-5.59,41.74-12.45,70.59-32,90.7-65.85,13.97-23.53,23.43-60.68,13.67-95.98-4.29-15.52-10.39-29.6-18.64-41.31-20.97-29.79-49.38-47.96-92.87-55.6-10.64-1.87-24.31-.96-34.17.93-4.24.72-8.49,1.45-12.73,2.17h.62c5.6-5.87,18.06-9.02,26.71-12.42,31.1-12.26,80.52-16.44,117.1-5.9,62.25,17.94,104.85,60.62,123.93,121.76,6.34,20.32,13.02,54.14,8.08,81.69-2.33,13-3.58,25.42-7.14,36.96-13.99,45.27-41.81,78.72-76.41,103.43-9.86,7.04-20.45,13.34-31.06,19.57-5.49,2.8-10.98,5.59-16.46,8.39v.31c11.91,3.93,23.81,7.87,35.72,11.8,22.06,6.66,45.68,10.11,69.58,14.91,27.22,5.46,56.25,4.6,85.11,9.32,11.91.62,23.81,1.24,35.72,1.86,12.84.21,25.68.41,38.51.62h31.06c15.94-.31,31.89-.62,47.83-.93,15.01-.83,30.03-1.66,45.04-2.48h-.62c-6,2.38-12.01,4.76-18.02,7.14-16.24,6.39-33.28,11.39-50.94,16.77-38.38,11.69-79.58,17.48-123.62,24.85-14.49,1.14-28.99,2.28-43.48,3.42-6.11.1-12.22.21-18.33.31-12.95,1.92-30.77,1.23-43.17-.62-22.09-3.29-44.17-.76-63.67-6.52,4.43,5.72,31.6,10.95,41.31,13.36,18.17,4.49,38.6,5.08,58.7,8.39,9.11.62,18.22,1.24,27.33,1.86,11.49.41,22.99.83,34.48,1.24,21.12-.1,42.24-.21,63.36-.31-11.08,1.86-22.16,3.73-33.23,5.59-15.42,1.97-30.86,3.93-46.28,5.9-21.25,3.66-43.8,1.11-65.85,4.66-9.01.1-18.02.21-27.02.31-12.01-.21-24.02-.41-36.03-.62-15.63-.93-31.27-1.86-46.9-2.8-33.25-5.57-65.52-8.24-95.36-15.84-33.09-8.43-63.74-16.82-93.18-28.58-132.75-53.01-229.88-140.31-306.57-249.42-32.15-45.74-59.07-95.82-82.31-150.64-6.74-15.9-12.66-32.32-18.64-49.39-2.29-6.53-5.68-13.77-6.52-21.12Z"/>
  <path class="cls-4" d="M283.58,1.62c107.98.1,215.98.21,323.96.31-30.02,68.22-60.05,136.47-90.08,204.69-26.3-13.74-50.49-34.98-73.61-52.49-17.32-13.11-33.79-27.06-50.01-41.31-6.73-6.32-13.46-12.63-20.19-18.95-14.51-11.69-28.68-25.8-41.31-39.45-11.08-11.7-22.16-23.4-33.23-35.1-4.66-5.38-9.32-10.77-13.98-16.15,1.76,8.39,3.52,16.77,5.28,25.16,4.7,18.01,9.63,36.05,16.15,52.8,26.66,68.49,58.16,129.04,95.98,185.74,12.33,18.48,25.05,36.24,38.2,53.73,5.69,7.35,11.39,14.7,17.08,22.05-28.57,64.91-57.15,129.84-85.73,194.75-17.92,41.08-26.14,73.75-63.98,95.98-26.71,15.69-67.91,14.29-110.89,14.29H0v-.31C94.52,432.14,189.06,216.85,283.58,1.62Z"/>
  <path class="cls-1" d="M766.07,0c107.98.1,215.98.21,323.96.31-18.43,41.93-55.29,125.79-55.29,125.79l-.62-.31c-6.95-15.64-26.02-39.14-31.06-44.11-2.47-2.43-17.71-18.51-28.26-26.09-32.15-26.29-86.06-53.7-148.47-42.55-34.4,6.11-54.37,14.86-79.2,30.75,6.32-14.6,12.63-29.2,18.95-43.8Z"/>
  <path class="cls-2" d="M745.88,45.97c9.87-.13,18.13,2.36,26.09,4.35,44.87,11.2,80.93,34.36,97.84,73.3,13.39,30.84,8.18,67.76-7.14,92.25-14.85,23.73-38.78,42.32-66.47,53.11-13.52,5.27-27.28,7.03-43.48,9.94-14.06,2.52-33.66,5.41-50.32,2.8-12.11-1.55-24.23-3.11-36.34-4.66-6.42-1.55-12.84-3.11-19.26-4.66,33.02-75.47,66.06-150.96,99.08-226.43Z"/>
  <path class="cls-2" d="M572.25,441.06c6.63,4.35,13.25,8.7,19.88,13.05,12.94,7.45,25.88,14.91,38.83,22.36,41.99,24.54,94.35,40.94,147.23,54.36,22.2,5.63,47.58,11.91,72.68,13.05v.93c-17.14,37.08-23.28,64.22-58.08,84.79-28.87,17.07-71.59,16.46-118.34,16.46h-191.95v-.31c29.92-68.22,59.85-136.47,89.76-204.69Z"/>
</svg>